<?xml version="1.0" encoding="utf-8"?>
<!-- Generator: Adobe Illustrator 23.1.0, SVG Export Plug-In . SVG Version: 6.00 Build 0)  -->
<svg version="1.1" id="Layer_1" xmlns="http://www.w3.org/2000/svg" xmlns:xlink="http://www.w3.org/1999/xlink" x="0px" y="0px"
	 viewBox="0 0 1000 500" enable-background="new 0 0 1000 500" xml:space="preserve">
<g>
	<path d="M881.16,357.21c-0.16-3.16,0.8-6.62-4.6-6.41c-8.13,0.31-16.27,0.12-24.41-0.06c-5.25-0.12-11.93,2.24-15.38-0.85
		c-3.86-3.44-0.85-10.35-1.42-15.71c-12.16-0.2-24.32-0.38-36.48-0.59c-4.84-0.08-4.35,2.32-2.36,5.21c1.93,2.82,4.21,5.4,6.05,8.28
		c1.88,2.95,1.07,5.43-2.61,5.47c-10.57,0.13-21.16,0.1-31.72-0.33c-3.05-0.12-5.14-3.11-7.41-5.07
		c-20.67-17.79-50.75-18.43-71.59-0.92c-5.13,4.31-10.09,6.51-16.87,6.46c-7.68-0.05-15.41-0.58-23.13,0.64
		c-4.99,0.79-6.51-1.74-4.31-6.39c0.94-1.99,2.34-3.78,3.72-5.52c1.78-2.25,2.3-5.08,1.42-7.34c-0.79-2.02-3.67-0.97-5.61-0.97
		c-79.16-0.05-158.32-0.04-237.48-0.04c-9.03,0-9.02,0-9.02-8.85c0-31.08,0.01-62.17-0.02-93.25c0-2.58,0.61-5.35-1.57-7.49
		c-4.09-0.4-4.54,2.02-4.51,5.33c0.11,15.24,0.19,30.49-0.05,45.72c-0.04,2.63,2.04,7.56-1.82,7.64c-4.05,0.08-2.04-4.87-2.04-7.44
		c-0.14-75.4-0.12-150.8-0.13-226.19c0-2.39,0-4.07,0.2-5.29c-0.24-1-0.25-2.06-0.04-3.06l-0.89,0c-4.71,2.28-3.82,5.41-3.82,8.21
		c-0.01,79.05,0,158.09-0.01,237.14c0,28.24-0.19,56.48,0.04,84.71c0.04,5.42-1.53,7.34-6.91,6.66c-3.41-0.43-6.95-0.46-10.36-0.08
		c-5.03,0.56-6.36-1.56-5.95-6.22c1.33-15.25-3.43-28.85-11.98-41.24c-9.44-13.68-21.75-24.78-37.17-30.32
		c-17.05-6.13-35.17-6.12-52.25,1.31c-20.59,8.96-34.68,24.8-43.59,45.02c-2.9,6.57-3.71,14.13-3.95,21.43
		c-0.13,3.94-1.49,5.38-5.43,5.27c-7.93-0.21-15.86-0.06-23.79-0.06c1.15,6.52,2.14,13.11,11.63,10.87c2.42-0.57,3.25,1.23,3,3.35
		c-0.47,4,1.68,4.82,5.1,4.7c5.28-0.18,10.58,0.05,15.86-0.21c4.27-0.21,6.35,0.59,6.93,5.72c0.94,8.36,3.46,16.44,8.4,23.62
		c14.55,21.12,34.65,31.43,60.07,28.26c27.26-3.4,44.91-19.4,52.61-45.8c3.38-11.6,3.09-11.33,15.33-11.89
		c5.13-0.23,12.57,3.98,14.73-5.36c0.1-0.43,2.23-0.49,3.42-0.54c2.23-0.1,4.48-0.11,6.71-0.07c1.7,0.03,3.2-0.62,2.46-2.36
		c-2.57-6.1,1.36-5.47,5.2-5.47c71.21,0.04,142.42,0.07,213.63-0.07c4.37-0.01,6.11,1.52,7.95,5.43
		c9.45,20.09,24.28,33.43,47.53,34.47c5.52,0.25,8.63,2.59,11.67,6.61c6.57,8.68,14.3,16.42,24.61,20.3
		c31.12,11.7,62.32,3.8,80.06-27.37c8.4-14.76,9.89-31.14,4.83-47.48c-1.94-6.25,0.21-6.65,5.31-6.49
		c9.15,0.29,18.31,0.23,27.46,0.03c3.84-0.08,6.16,0.43,6.01,5.13c-0.17,5.36,4.27,3.06,6.78,3.15c2.33,0.09,6.42,1.89,6.12-3.14
		c-0.26-4.39,2.03-4.88,5.61-4.84c11.8,0.16,23.61-0.13,35.4,0.19C880.83,362.9,881.34,360.71,881.16,357.21z M226.26,367.86
		c-0.74,2.73-1.95,5.51-1.87,8.24c0.17,5.64-2.46,7.11-7.38,6.06c-5.12,1.05-6.82-0.5-4.78-5.63c0.77-1.95,0.79-4.15,1.74-6.22
		c2.28-5,5.65-6.77,10.97-5.5C227.18,365.36,226.66,366.41,226.26,367.86z M285.49,424.54c-21.7,0.08-38.81-16.98-38.67-38.56
		c0.13-20.31,17.4-36.6,38.23-37.3c19.91-0.67,38.57,15.33,38.79,37.81C324.06,409.37,304.28,426.12,285.49,424.54z M344.3,364.93
		c3.55,1.2,3.25,3.62,2.63,6.99C343.72,369.83,343.83,367.62,344.3,364.93z M349.06,382.06c-1.63,0.35-2.65-0.55-2.61-2.41
		c0.05-2.41,0.01-4.82,0.01-7.28c2.34,1.64,1.98,4.63,3.39,6.74C350.46,380.03,350.72,381.7,349.06,382.06z M391.78,340.39h-0.06
		c0,2.81,0.04,5.63-0.02,8.44c-0.03,1.06-0.56,2.03-1.71,2.15c-1.59,0.16-2.07-1.04-2.08-2.31c-0.05-5.42-0.06-10.85,0.03-16.27
		c0.02-1.49,0.74-2.89,2.53-2.7c1.72,0.18,1.25,1.79,1.29,2.85C391.85,335.16,391.78,337.78,391.78,340.39z M723.25,425.33
		c-19.95-0.19-38.91-18.7-37.12-38.9c-1.53-21.7,19.8-38.24,37.63-37.79c21.53,0.55,38.84,17.77,38.84,37.61
		C762.6,406.7,745.51,425.54,723.25,425.33z"/>
	<path d="M64.31,291.56c2.66-2.92,2.58-7.56,6.24-9.84c21.25-6.27,43.07-6.63,64.98-6.42c4.44,0.04,6.11,1.18,5.95,5.79
		c-0.47,13.08,1.08,26.12,0.1,39.26c-1.25,16.77,2.33,33.43,2.18,50.22c-12.4,0.97-24.72-0.72-37.08-1.15
		c-21.25-0.73-34.58-11.66-39.84-32.39c-0.56-2.22-0.14-4.91-2.52-6.44C64.31,317.58,64.31,304.57,64.31,291.56z"/>
	<path d="M387.18,40.13c-24.28,0.76-47.17-0.73-69.96,1.2c-0.55,0.16-1.15,0.25-1.81,0.25c-0.24,0-0.46-0.01-0.68-0.03
		c-0.08,0.01-0.17,0.01-0.25,0.02c-21.79,0.57-43.18,3.8-64.25,9.32c-13.86,3.63-27.67,8.11-38.36,17.71
		C198,81.04,186,95.28,176.59,111.64c-8.89,15.46-18.56,30.47-27.07,46.17c-4.25,7.84-7.09,16.47-12.53,23.6
		c-14.43,18.9-32.28,34.13-52.02,47.23c-2.91,1.93-5.68,4.01-7.4,7.09c-8.04,14.45-8.2,30.12-7.02,45.99
		c21.25-6.27,43.07-6.63,64.98-6.42c4.44,0.04,6.11,1.18,5.95,5.79c-0.47,13.08,1.08,26.12,0.1,39.26
		c-1.25,16.77,2.33,33.43,2.18,50.22c12.64,2.2,25.4,1.33,38.13,1.46c7.93,0,15.87-0.15,23.79,0.06c3.95,0.1,5.3-1.33,5.43-5.27
		c0.25-7.31,1.06-14.86,3.95-21.43c8.91-20.23,23-36.07,43.59-45.02c17.08-7.43,35.2-7.44,52.25-1.31
		c15.43,5.54,27.73,16.64,37.17,30.32c8.55,12.39,13.31,25.99,11.98,41.24c-0.41,4.65,0.92,6.78,5.95,6.22
		c3.41-0.38,6.95-0.36,10.36,0.08c5.38,0.69,6.95-1.24,6.91-6.66c-0.23-28.24-0.04-56.47-0.04-84.71
		c0.01-79.05,0-158.09,0.01-237.14C383.25,45.57,382.34,42.41,387.18,40.13z M113.18,237.88c-0.62,12.55-4.56,26.55-20.7,33.75
		c-0.56,0.25-1.09,0.57-1.66,0.75c-4.82,1.49-10.28,4.96-14.55,2.82c-5.66-2.84-1.13-8.89-1.11-13.54c0.02-5.66,0.16-11.4,2.1-16.74
		c4.35-11.99,14.02-17.22,25.86-19.43c0.2-0.04,0.4-0.04,0.61-0.06C113.43,224.44,113.43,224.44,113.18,237.88z M336.7,304.98
		c-0.1,0.51-0.19,1.02-0.29,1.53c-0.21-0.12-0.43-0.24-0.64-0.36L336.7,304.98c0.92-2.58,1.84-5.17,4.86-6.07
		C340.76,301.59,340.24,304.48,336.7,304.98z M341.6,298.84c0.07-2.84,0.92-5.37,3.14-7.96
		C345.57,294.67,343.92,296.89,341.6,298.84z M338.28,201.06c-2.84-0.08-5.69-0.01-8.54-0.01v0.05c-2.85,0-5.7-0.12-8.54,0.03
		c-5.45,0.28-7.9-2.25-7.7-7.63c0.19-5.06,2.98-7.54,8.25-7.38c5.44,0.16,10.89,0.24,16.33,0.21c5.71-0.03,8.15,2.07,8.21,7.23
		C346.37,199,343.49,201.21,338.28,201.06z M346.13,172.07c-16.06,0.34-32.11,0.94-48.16,1.51c-45.1,1.6-90.2,3.26-135.3,4.85
		c-7.99,0.28-8.17-0.07-4.56-7.48c15.2-31.23,34.52-59.72,57.38-85.83c10.15-11.59,24.44-14.78,38.54-17.95
		c9.12-2.05,18.69-1.55,27.77-3.04c21.5-3.51,42.98-1.07,64.44-1.96c6.15-0.26,8.07,1.76,7.91,7.96
		c-0.43,15.63-0.14,31.29-0.14,46.94c-0.01,15.65-0.37,31.3,0.16,46.93C354.38,170.47,351.75,171.95,346.13,172.07z"/>
	<path d="M835.35,334.18c-12.16-0.19-24.32-0.38-36.48-0.59c-4.84-0.08-4.35,2.32-2.36,5.21c1.93,2.82,4.21,5.4,6.05,8.28
		c1.88,2.95,1.07,5.43-2.61,5.47c-10.57,0.13-21.16,0.1-31.72-0.33c-3.05-0.12-5.14-3.11-7.41-5.07
		c-20.67-17.79-50.75-18.43-71.59-0.92c-5.13,4.31-10.09,6.51-16.87,6.46c-7.68-0.05-15.41-0.58-23.13,0.64
		c-4.99,0.79-6.51-1.74-4.31-6.39c0.94-1.99,2.34-3.78,3.72-5.52c1.78-2.25,2.3-5.08,1.42-7.34c-0.79-2.02-3.67-0.97-5.61-0.97
		c-79.16-0.05-158.32-0.04-237.48-0.04c-9.03,0-9.02,0-9.02-8.85c0-31.08,0.01-62.17-0.02-93.25c0-2.58,0.61-5.35-1.57-7.49
		c0.38-0.93,0.97-1.84,1.1-2.81c1.15-8.39,1.13-8.38,9.44-8.38c170.99,0,341.98,0.03,512.97-0.13c5.75-0.01,7.16,1.66,7.13,7.17
		c-0.22,35.97-0.21,71.94,0,107.91c0.03,5.23-1.23,6.93-6.77,6.88C891.94,333.9,863.64,334.12,835.35,334.18z M663.45,266.02
		c-80.21,0-160.41,0-240.62,0c-2.44,0-4.9,0.19-7.32-0.02c-3.16-0.27-4.31,1.53-5.01,4.11c-2.06,7.61,1.52,11.46,10.75,11.46
		c161.84,0,323.67,0,485.51,0c1.63,0,3.26,0.04,4.88-0.05c3.4-0.19,5-2.07,5.33-5.43c0.81-8.15-0.88-10.08-9.25-10.08
		C826.3,266.01,744.87,266.01,663.45,266.02z M663.09,248.93c81.4,0,162.81,0,244.21,0c1.42,0,2.85,0.02,4.27-0.02
		c3.46-0.08,5.04-1.97,5.41-5.32c0.82-7.41-0.88-9.35-8.51-9.35c-158.13,0-316.25,0-474.38,0.01c-5.49,0-10.99-0.05-16.48,0.02
		c-5.41,0.07-7.18,2.48-7.49,8.64c-0.27,5.31,2.82,6.06,6.93,6.01c2.24-0.03,4.48,0.01,6.72,0.01
		C503.54,248.93,583.31,248.93,663.09,248.93z M664.06,297.85c0-0.01,0-0.02,0-0.02c-81.6,0-163.2,0-244.8,0.01
		c-7.38,0-9.09,1.57-9.11,8.11c-0.02,6.35,1.18,7.37,8.85,7.37c84.45,0.01,168.9,0.01,253.35,0.03c2.89,0,5.56-0.33,8.21-1.74
		c28.82-15.34,57.81-15.5,86.77-0.45c3.25,1.69,6.43,2.19,9.93,2.19c30.12-0.05,60.23-0.04,90.35-0.04c13.84,0,27.67-0.03,41.51,0
		c5,0.01,8.14-1.46,7.92-7.36c-0.26-7.05-0.96-8.08-8.18-8.08C827.26,297.85,745.66,297.85,664.06,297.85z"/>
	<path fill="#3A3A3A" d="M285.49,424.54c-21.7,0.08-38.81-16.98-38.67-38.56c0.13-20.31,17.4-36.6,38.23-37.3
		c19.91-0.67,38.57,15.33,38.79,37.81C324.06,409.37,304.28,426.12,285.49,424.54z M263.45,386.23
		c-0.13,12.39,9.26,22.31,21.32,22.53c12.57,0.23,22.65-9.48,22.68-21.86c0.03-12.02-9.56-22.13-21.12-22.24
		C273.47,364.54,263.57,373.86,263.45,386.23z"/>
	<path fill="#3A3A3A" d="M686.13,386.43c-1.53-21.7,19.8-38.24,37.63-37.79c21.53,0.55,38.84,17.77,38.84,37.61
		c0,20.45-17.09,39.29-39.36,39.09C703.3,425.15,684.34,406.63,686.13,386.43z M746.07,386.38c-0.01-12.59-9.33-21.73-22.1-21.67
		c-12.28,0.06-22.41,9.77-21.86,21.99c0.59,12.97,7.12,22.66,23.76,21.71C736.49,407.8,746.34,400.87,746.07,386.38z"/>
	<path fill="#3A3A3A" d="M113.18,237.88c-0.62,12.55-4.56,26.55-20.7,33.75c-0.56,0.25-1.09,0.57-1.66,0.75
		c-4.82,1.49-10.28,4.96-14.55,2.82c-5.66-2.84-1.13-8.89-1.11-13.54c0.02-5.66,0.16-11.4,2.1-16.74
		c4.35-11.99,14.02-17.22,25.86-19.43c0.2-0.04,0.4-0.04,0.61-0.06C113.43,224.44,113.43,224.44,113.18,237.88z M109.66,236.43
		c0-1.73-0.15-2.77,0.03-3.74c1-5.49-2.11-5.43-5.85-4.28c-2.66,0.82-5.24,1.89-7.85,2.87c-8.78,3.27-14.88,8.88-16.08,18.65
		c-0.74,6.02-1.52,12.04-2.07,18.07c-0.11,1.23-1.69,3.9,1.15,3.63c2.38-0.22,6.49,0.53,6.63-3.34c0.41-11.3,7.03-16.69,17.2-18.54
		c4.21-0.77,5.92-2.92,6.27-6.77C109.31,240.56,109.51,238.14,109.66,236.43z"/>
	<path fill="#3A3A3A" d="M329.74,201.1c-2.85,0-5.7-0.12-8.54,0.03c-5.45,0.28-7.9-2.25-7.7-7.63c0.19-5.06,2.98-7.54,8.25-7.38
		c5.44,0.16,10.89,0.24,16.33,0.21c5.71-0.03,8.15,2.07,8.21,7.23c0.07,5.46-2.82,7.67-8.03,7.52c-2.84-0.08-5.69-0.01-8.54-0.01
		C329.74,201.06,329.74,201.08,329.74,201.1z"/>
	<path fill="#1E5578" d="M336.7,304.98c-0.1,0.51-0.19,1.02-0.29,1.53c-0.21-0.12-0.43-0.24-0.64-0.36
		C336.08,305.76,336.39,305.37,336.7,304.98C336.69,304.98,336.7,304.98,336.7,304.98z"/>
	<path fill="#3A3A3A" d="M663.45,266.01c81.43,0,162.85,0,244.28,0c8.37,0,10.07,1.93,9.25,10.08c-0.34,3.37-1.93,5.24-5.33,5.43
		c-1.62,0.09-3.26,0.05-4.88,0.05c-161.84,0-323.67,0-485.51,0c-9.23,0-12.81-3.86-10.75-11.46c0.7-2.58,1.85-4.38,5.01-4.11
		c2.42,0.21,4.88,0.02,7.32,0.02C503.03,266.02,583.24,266.02,663.45,266.01z"/>
	<path fill="#3A3A3A" d="M663.09,248.93c-79.78,0-159.55,0-239.33,0c-2.24,0-4.48-0.04-6.72-0.01c-4.1,0.05-7.19-0.7-6.93-6.01
		c0.31-6.16,2.08-8.57,7.49-8.64c5.49-0.07,10.99-0.02,16.48-0.02c158.13,0,316.25,0,474.38-0.01c7.63,0,9.33,1.94,8.51,9.35
		c-0.37,3.35-1.95,5.24-5.41,5.32c-1.42,0.03-2.85,0.02-4.27,0.02C825.89,248.93,744.49,248.93,663.09,248.93z"/>
	<path fill="#3A3A3A" d="M664.06,297.85c81.6,0,163.2,0,244.8,0.01c7.21,0,7.92,1.04,8.18,8.08c0.22,5.9-2.92,7.37-7.92,7.36
		c-13.84-0.03-27.67,0-41.51,0c-30.12,0.01-60.23,0-90.35,0.04c-3.5,0.01-6.68-0.5-9.93-2.19c-28.96-15.05-57.94-14.9-86.77,0.45
		c-2.65,1.41-5.33,1.74-8.21,1.74c-84.45-0.02-168.9-0.02-253.35-0.03c-7.67,0-8.87-1.03-8.85-7.37c0.02-6.54,1.73-8.11,9.11-8.11
		c81.6-0.01,163.2-0.01,244.8-0.01C664.06,297.84,664.06,297.84,664.06,297.85z"/>
</g>
</svg>
