<?xml version="1.0" encoding="utf-8"?>
<!-- Generator: Adobe Illustrator 23.1.0, SVG Export Plug-In . SVG Version: 6.00 Build 0)  -->
<svg version="1.1" id="Layer_1" xmlns="http://www.w3.org/2000/svg" xmlns:xlink="http://www.w3.org/1999/xlink" x="0px" y="0px"
	 viewBox="0 0 1000 500" enable-background="new 0 0 1000 500" xml:space="preserve">
<g>
	<path d="M673.41,188.78c-1.6-0.09-3.2-0.21-4.81-0.32c-0.81,0.11-1.62,0.22-2.44,0.32H673.41z"/>
	<path d="M979.45,286.51c-1.06-0.13-2.06-0.8-2.97-1.17c0-26.72-0.43-53.23,0.21-79.71c0.26-10.86-3.16-15.51-14.22-14.35
		c-5.57,0.58-11.25,0.1-16.88,0.1c-0.05-0.58-0.09-1.16-0.14-1.75h-35.92c-0.01,0.36-0.02,0.72-0.03,1.08H801.03
		c-0.05-0.36-0.09-0.72-0.14-1.08h-34.62c-0.01,0.24-0.01,0.47-0.02,0.71H657.09c0-0.19,0.01-0.39,0.01-0.58
		c-11.93,1.13-24.55,1.62-36.79,0.82c-0.69,0.33-1.38,0.6-2.07,0.6c-33.43,0.12-66.85,0.07-100.28,0.23
		c-3.23,0.02-25.72,0.68-26.87,0.67c-0.78-3.75-1.91-7.46-2.29-11.24c-2.67-26.84-5.2-53.69-7.73-80.54
		c-1.41-14.89-5.14-19.32-20.15-18.16c-36.65,2.83-74.21,2.73-109.48,11.53c-26.3,6.57-50.32,24.03-73.99,38.82
		c-22.49,14.05-43.03,31.19-64.87,46.34c-4.55,3.15-10.98,4.81-16.61,4.98c-55.06,1.65-108.63,10.39-160.37,30.09
		c-16.38,6.24-20.51,18.11-21.62,33.41c-0.81,11.21,1.33,23.1-11.98,30.88c-3.53,2.06-1.08,14.51-1.23,22.19
		c-0.17,9.22,1.28,18.76-0.66,27.56c-2.07,9.4,0.2,16.06,8.67,17.83c15.17,3.18,30.74,4.65,46.22,6.02c1.98,0.17,5.56-4.2,6.38-7.05
		c2.22-7.62,3.09-15.62,4.94-23.37c7.26-30.45,26.63-47.76,57.56-51.85c20.9-2.76,41.96-3,61.79,4.96
		c26.26,10.54,38.09,32.91,42.82,59.05c2.55,14.06,1.97,28.68,2.85,43.05c0.17,2.74,0.59,5.46,3.49,8.39
		c0.99-5.33,2.42-10.62,2.86-16c0.78-9.6,5.55-12.32,15.01-12.27c69.16,0.38,138.32,0.36,207.49,0.15
		c23.69-0.07,22.06,3.34,21.95-21.95c-0.01-3,0-6,0-8.99c0.49,0,0.97,0,1.46,0c0.09,1.48,0.27,2.96,0.25,4.44
		c-0.3,30.33-2.07,26.22,25.98,26.31c44.46,0.14,88.93-0.41,133.38,0.14c10.15,0.13,12.41-3.42,13.75-12.71
		c2.05-14.17,5.18-28.49,10.27-41.83c8.6-22.55,26.73-35.1,50.23-37.57c16.47-1.73,33.51-1.64,49.93,0.47
		c32.28,4.16,48.18,27.11,55.84,55.92c4.91,18.49,6.49,37.86,11.2,58.07c2.39-7.69,5.76-15.24,6.9-23.11
		c1.15-7.96,4.24-10.77,12.29-11.21c40.2-2.22,80.37-5.08,120.56-7.63c14.5-0.92,19.6-5.08,22.78-19.06
		c0.51-2.22,1.02-4.45,1.37-6.7C1001.77,289.29,1001.76,289.3,979.45,286.51z M17.92,322.06c-3.59-0.66-6.47-5.16-12.04-9.99
		c5.89-4.24,9.84-9.17,12.62-8.58c3.93,0.83,9.18,5.3,9.96,9.02C29.87,319.29,24.18,323.2,17.92,322.06z M23.06,262.42
		c2.43-8.96,4.49-18.01,7.43-26.77c1.39-4.13,4.08-10.68,6.82-11.03c16.9-2.13,33.98-2.81,52.02-4.04
		C81.54,248.31,49.46,268.1,23.06,262.42z M356.85,191.34c0,0.73-0.01,1.46-0.01,2.18c-18.57,0-37.15-0.22-55.72,0.1
		c-7.97,0.14-10.96-2.34-11.81-10.94c-1.97-19.94,2.45-35.57,21.98-44.77c5.73-2.7,10.4-7.57,15.76-11.13
		c29.52-19.55,63.72-17.25,96.74-20.05c1.7-0.14,5.73,5.55,5.54,8.31c-1.55,22.31-4.04,44.56-5.81,66.86
		c-0.58,7.32-3.88,9.64-10.89,9.53C394.04,191.14,375.45,191.34,356.85,191.34z M390.31,234.55c12.5-8.07,40.07-7.32,44.94,0H390.31
		z M487.36,297.99c-0.52-0.1-1.04-0.19-1.56-0.29v-85.35c0.52,0,1.04,0,1.56,0V297.99z M969.47,269.42
		c-0.19,9.28-8.07,5.9-13.09,6.16c-6.76,0.35-8.22-4.28-7.54-9.9c1.74-14.31,2.86-28.75,5.78-42.82c1.38-6.62,6.34-12.49,9.67-18.71
		c1.77,0.66,3.54,1.32,5.31,1.98C969.61,227.23,969.91,248.34,969.47,269.42z"/>
	<path d="M70.72,347.89c0.43-42.27,34.97-75.66,78.05-75.47c39.36,0.18,73.09,35.84,72.81,76.99
		c-0.28,41.12-33.95,74.52-74.91,74.29C103.93,423.46,70.29,389.89,70.72,347.89z M121.93,373.9c1.47-0.29,2.95-0.59,4.42-0.88
		c0-4.64,1.48-10.08-0.46-13.67c-1.61-3-7.24-3.84-11.09-5.63c-0.96,1.16-1.92,2.32-2.87,3.48
		C115.27,362.76,118.6,368.33,121.93,373.9z M136.48,315.19c-0.42,1.2-0.83,2.4-1.25,3.61c3.67,2.32,7.29,6.36,11.04,6.49
		c3.74,0.12,7.6-3.68,11.42-5.76c-0.55-1.44-1.11-2.89-1.66-4.33C149.5,315.19,142.99,315.19,136.48,315.19z M170.98,341.23
		c1.83,0.93,5-0.77,7.56-1.26c-2.37-5.67-4.73-11.33-7.09-17C163.21,331.19,163.25,337.27,170.98,341.23z M116.83,330.11
		c-1.53,3.09-1.73,6.83-2.51,10.29c2.09,0.31,5.05,1.63,6.12,0.72c2.86-2.43,5.72-5.51,7-8.92c0.86-2.29-0.99-5.59-2.28-11.37
		C121.03,325.3,118.2,327.34,116.83,330.11z M166.41,360.16c-1.86,3.13-0.41,8.23-0.41,12.47c1.42,0.42,2.84,0.83,4.26,1.25
		c3.33-5.36,6.66-10.72,9.99-16.08c-1.04-1.19-2.07-2.38-3.11-3.57C173.42,356.12,168.21,357.12,166.41,360.16z M136.01,378.98
		c6.75,6.25,13.3,5.65,20.35,0.61C149.17,368.32,144.43,368.14,136.01,378.98z"/>
	<path d="M743.15,423.92c-41.45,0.32-75.95-33.65-76-74.82c-0.05-42.07,34.31-76.81,75.69-76.51c41.8,0.3,74.97,33.73,75.03,75.62
		C817.94,390.28,785.06,423.59,743.15,423.92z M733.28,314.9c-0.49,1.29-0.99,2.58-1.48,3.87c3.59,2.3,7.16,6.35,10.79,6.42
		c3.81,0.07,7.69-3.69,11.54-5.77c-0.5-1.51-1-3.01-1.5-4.52C746.17,314.9,739.73,314.9,733.28,314.9z M766.68,321.98
		c-8.65,13.19-6.35,17.89,10.59,18.4C773.94,334.61,770.62,328.84,766.68,321.98z M718.49,374.68c9.54-12.24,7.06-17.87-10.96-20.7
		C711.95,362.33,714.98,368.07,718.49,374.68z M720.26,321.19c-4.47,6.9-7.99,12.34-11.51,17.79
		C724.92,340.32,727.33,336.16,720.26,321.19z M777.36,356.72c-15.24-2.05-18.44,2.46-12.4,19.82
		C769.97,368.52,773.4,363.05,777.36,356.72z M731.69,381.41c7.71,0,14.24,0,22.13,0C745.4,367.98,739.02,367.97,731.69,381.41z
		 M742.23,353.83c2.13-0.03,4.21-3.05,6.32-4.76c-1.9-2.31-3.43-5.67-5.85-6.54c-1.46-0.52-4.3,2.84-7.97,5.51
		C738.09,350.8,740.18,353.86,742.23,353.83z"/>
	<path fill="#FFFFFF" d="M485.8,297.7c0.52,0.1,1.04,0.19,1.56,0.29"/>
	<path fill="#FFFFFF" d="M487.36,212.35c-0.52,0-1.04,0-1.56,0"/>
	<path fill="#FFFFFF" d="M390.31,234.55c14.69,0,29.38,0,44.94,0"/>
</g>
<path fill="#3A3A3A" d="M742.7,385.33c-21.44,0.08-38.35-16.79-38.22-38.11c0.13-20.07,17.2-36.17,37.78-36.86
	c19.68-0.67,38.12,15.15,38.33,37.37C780.83,370.33,761.28,386.89,742.7,385.33z M720.92,347.47c-0.13,12.24,9.15,22.05,21.07,22.27
	c12.43,0.23,22.38-9.37,22.42-21.6c0.03-11.88-9.45-21.87-20.87-21.98C730.82,326.03,721.05,335.24,720.92,347.47z"/>
<path fill="#3A3A3A" d="M144.94,386.78c-21.44,0.08-38.35-16.79-38.22-38.11c0.13-20.07,17.2-36.17,37.78-36.86
	c19.68-0.67,38.12,15.15,38.33,37.37C183.06,371.78,163.52,388.34,144.94,386.78z M123.16,348.91
	c-0.13,12.24,9.15,22.05,21.07,22.27c12.43,0.23,22.38-9.37,22.42-21.6c0.03-11.88-9.45-21.87-20.87-21.98
	C133.06,327.48,123.29,336.69,123.16,348.91z"/>
</svg>
