<?xml version="1.0" encoding="utf-8"?>
<!-- Generator: Adobe Illustrator 23.1.0, SVG Export Plug-In . SVG Version: 6.00 Build 0)  -->
<svg version="1.1" id="Layer_1" xmlns="http://www.w3.org/2000/svg" xmlns:xlink="http://www.w3.org/1999/xlink" x="0px" y="0px"
	 viewBox="0 0 1000 500" enable-background="new 0 0 1000 500" xml:space="preserve">
<g>
	<path d="M524.65,300.82c-0.1-2.03,0.51-4.25-2.96-4.12c-5.22,0.2-10.45,0.08-15.67-0.04c-3.37-0.07-7.66,1.44-9.88-0.54
		c-2.48-2.21-0.55-6.64-0.91-10.09c-7.81-0.13-15.61-0.25-23.42-0.38c-3.11-0.05-2.79,1.49-1.52,3.35c1.24,1.81,2.7,3.47,3.88,5.31
		c1.21,1.89,0.68,3.48-1.67,3.51c-6.79,0.08-13.58,0.06-20.37-0.21c-1.96-0.08-3.3-2-4.76-3.25c-13.27-11.42-32.58-11.83-45.96-0.59
		c-3.29,2.77-6.48,4.18-10.83,4.15c-4.93-0.03-9.89-0.37-14.85,0.41c-3.21,0.51-4.18-1.12-2.77-4.1c0.6-1.28,1.5-2.43,2.39-3.55
		c1.14-1.45,1.48-3.26,0.91-4.71c-0.51-1.3-2.36-0.62-3.6-0.62c-50.82-0.03-101.64-0.03-152.46-0.03c-5.79,0-5.79,0-5.79-5.68
		c0-19.96,0.01-39.91-0.01-59.87c0-1.66,0.39-3.43-1.01-4.81c-2.63-0.26-2.91,1.3-2.9,3.42c0.07,9.78,0.13,19.57-0.03,29.35
		c-0.03,1.69,1.31,4.85-1.17,4.9c-2.6,0.05-1.31-3.13-1.31-4.77c-0.09-48.4-0.07-96.81-0.08-145.21c0-1.53,0-2.61,0.13-3.39
		c-0.15-0.64-0.16-1.32-0.02-1.97l-0.57,0c-3.02,1.46-2.45,3.47-2.45,5.27c-0.01,50.75,0,101.49-0.01,152.24
		c0,18.13-0.12,36.26,0.02,54.38c0.03,3.48-0.98,4.71-4.44,4.27c-2.19-0.28-4.46-0.29-6.65-0.05c-3.23,0.36-4.08-1-3.82-3.99
		c0.86-9.79-2.2-18.52-7.69-26.48c-6.06-8.78-13.96-15.91-23.86-19.47c-10.95-3.93-22.58-3.93-33.54,0.84
		c-13.22,5.75-22.26,15.92-27.98,28.9c-1.86,4.22-2.38,9.07-2.54,13.76c-0.09,2.53-0.95,3.45-3.49,3.39
		c-5.09-0.13-10.18-0.04-15.28-0.04c0.74,4.18,1.37,8.41,7.47,6.98c1.56-0.37,2.09,0.79,1.93,2.15c-0.3,2.57,1.08,3.09,3.27,3.02
		c3.39-0.11,6.79,0.03,10.18-0.13c2.74-0.14,4.08,0.38,4.45,3.67c0.61,5.37,2.22,10.56,5.4,15.16
		c9.34,13.56,22.25,20.18,38.56,18.14c17.5-2.18,28.83-12.45,33.77-29.4c2.17-7.45,1.98-7.27,9.84-7.63
		c3.29-0.15,8.07,2.56,9.45-3.44c0.06-0.27,1.43-0.31,2.2-0.35c1.43-0.06,2.87-0.07,4.31-0.04c1.09,0.02,2.05-0.39,1.58-1.52
		c-1.65-3.92,0.88-3.51,3.34-3.51c45.72,0.02,91.43,0.04,137.15-0.04c2.81-0.01,3.93,0.98,5.1,3.48
		c6.06,12.9,15.59,21.46,30.51,22.13c3.55,0.16,5.54,1.66,7.49,4.24c4.22,5.57,9.18,10.54,15.8,13.03
		c19.98,7.51,40.01,2.44,51.39-17.57c5.39-9.47,6.35-19.99,3.1-30.48c-1.24-4.01,0.13-4.27,3.41-4.17
		c5.87,0.18,11.76,0.15,17.63,0.02c2.46-0.05,3.95,0.28,3.86,3.29c-0.11,3.44,2.74,1.96,4.35,2.02c1.5,0.06,4.12,1.21,3.93-2.01
		c-0.17-2.82,1.3-3.14,3.6-3.11c7.57,0.1,15.15-0.08,22.72,0.12C524.43,304.47,524.76,303.06,524.65,300.82z M104.22,307.66
		c-0.47,1.75-1.25,3.54-1.2,5.29c0.11,3.62-1.58,4.56-4.74,3.89c-3.28,0.68-4.38-0.32-3.07-3.62c0.5-1.25,0.51-2.66,1.11-3.99
		c1.46-3.21,3.63-4.35,7.04-3.53C104.81,306.05,104.47,306.73,104.22,307.66z M142.24,344.04c-13.93,0.05-24.91-10.9-24.83-24.76
		c0.08-13.04,11.17-23.49,24.54-23.95c12.78-0.43,24.76,9.84,24.9,24.27C167,334.3,154.3,345.06,142.24,344.04z M179.99,305.78
		c2.28,0.77,2.08,2.32,1.69,4.49C179.62,308.92,179.69,307.5,179.99,305.78z M183.05,316.77c-1.05,0.23-1.7-0.35-1.68-1.54
		c0.03-1.55,0.01-3.09,0.01-4.67c1.5,1.05,1.27,2.97,2.18,4.32C183.95,315.47,184.12,316.54,183.05,316.77z M210.48,290.02h-0.04
		c0,1.81,0.03,3.61-0.01,5.42c-0.02,0.68-0.36,1.3-1.1,1.38c-1.02,0.1-1.33-0.67-1.34-1.48c-0.03-3.48-0.04-6.97,0.02-10.45
		c0.02-0.96,0.47-1.85,1.62-1.73c1.1,0.11,0.8,1.15,0.83,1.83C210.52,286.67,210.48,288.35,210.48,290.02z M423.27,344.55
		c-12.81-0.12-24.98-12.01-23.83-24.98c-0.98-13.93,12.71-24.55,24.16-24.26c13.82,0.35,24.94,11.41,24.94,24.14
		C448.53,332.59,437.56,344.68,423.27,344.55z"/>
	<path d="M0.24,258.68c1.7-1.87,1.65-4.85,4.01-6.32c13.64-4.03,27.65-4.26,41.72-4.12c2.85,0.03,3.92,0.76,3.82,3.72
		c-0.3,8.39,0.69,16.77,0.06,25.2c-0.8,10.76,1.5,21.46,1.4,32.24c-7.96,0.63-15.87-0.46-23.81-0.74
		c-13.64-0.47-22.2-7.48-25.57-20.8c-0.36-1.43-0.09-3.15-1.62-4.14C0.24,275.38,0.24,267.03,0.24,258.68z"/>
	<path d="M207.52,97.26c-15.59,0.49-30.28-0.47-44.92,0.77c-0.35,0.1-0.74,0.16-1.16,0.16c-0.15,0-0.3-0.01-0.44-0.02
		c-0.05,0.01-0.11,0.01-0.16,0.01c-13.99,0.37-27.72,2.44-41.25,5.98c-8.9,2.33-17.76,5.21-24.62,11.37
		c-8.9,7.99-16.6,17.13-22.64,27.63c-5.71,9.93-11.92,19.56-17.38,29.64c-2.73,5.03-4.55,10.58-8.04,15.15
		c-9.26,12.13-20.72,21.91-33.4,30.32c-1.87,1.24-3.65,2.58-4.75,4.55c-5.16,9.28-5.26,19.34-4.51,29.52
		c13.64-4.03,27.65-4.26,41.72-4.12c2.85,0.03,3.92,0.76,3.82,3.72c-0.3,8.39,0.69,16.77,0.06,25.2c-0.8,10.76,1.5,21.46,1.4,32.24
		c8.12,1.41,16.31,0.85,24.48,0.94c5.09,0,10.19-0.1,15.28,0.04c2.54,0.07,3.4-0.85,3.49-3.39c0.16-4.69,0.68-9.54,2.54-13.76
		c5.72-12.98,14.76-23.15,27.98-28.9c10.96-4.77,22.6-4.78,33.54-0.84c9.9,3.56,17.8,10.68,23.86,19.47
		c5.49,7.95,8.55,16.68,7.69,26.48c-0.26,2.99,0.59,4.35,3.82,3.99c2.19-0.24,4.46-0.23,6.65,0.05c3.45,0.44,4.46-0.79,4.44-4.27
		c-0.15-18.13-0.03-36.25-0.02-54.38c0.01-50.75,0-101.49,0.01-152.24C205,100.76,204.41,98.73,207.52,97.26z M31.62,224.21
		c-0.4,8.05-2.93,17.05-13.29,21.67c-0.36,0.16-0.7,0.36-1.07,0.48c-3.09,0.96-6.6,3.18-9.34,1.81c-3.63-1.82-0.72-5.71-0.71-8.69
		c0.01-3.63,0.1-7.32,1.35-10.75c2.79-7.69,9-11.05,16.6-12.47c0.13-0.02,0.26-0.02,0.39-0.04
		C31.78,215.58,31.78,215.58,31.62,224.21z M175.12,267.29c-0.06,0.33-0.12,0.65-0.19,0.98c-0.14-0.08-0.27-0.15-0.41-0.23
		L175.12,267.29c0.59-1.66,1.18-3.32,3.12-3.9C177.72,265.11,177.39,266.97,175.12,267.29z M178.26,263.35
		c0.04-1.82,0.59-3.45,2.01-5.11C180.81,260.67,179.75,262.09,178.26,263.35z M176.13,200.58c-1.83-0.05-3.65-0.01-5.48-0.01v0.03
		c-1.83,0-3.66-0.08-5.48,0.02c-3.5,0.18-5.07-1.44-4.94-4.9c0.12-3.25,1.91-4.84,5.3-4.74c3.49,0.1,6.99,0.15,10.49,0.13
		c3.67-0.02,5.23,1.33,5.27,4.64C181.32,199.25,179.47,200.67,176.13,200.58z M181.17,181.97c-10.31,0.22-20.61,0.6-30.92,0.97
		c-28.95,1.03-57.91,2.09-86.86,3.11c-5.13,0.18-5.25-0.04-2.93-4.8c9.76-20.05,22.16-38.34,36.84-55.1
		c6.52-7.44,15.69-9.49,24.74-11.53c5.85-1.32,12-1,17.83-1.95c13.8-2.25,27.59-0.69,41.37-1.26c3.95-0.16,5.18,1.13,5.08,5.11
		c-0.27,10.04-0.09,20.09-0.09,30.13c-0.01,10.04-0.24,20.1,0.1,30.13C186.46,180.94,184.78,181.89,181.17,181.97z"/>
	<path d="M495.24,286.04c-7.81-0.13-15.61-0.25-23.42-0.38c-3.11-0.05-2.79,1.49-1.52,3.35c1.24,1.81,2.7,3.47,3.88,5.31
		c1.21,1.89,0.68,3.48-1.67,3.51c-6.79,0.08-13.58,0.06-20.37-0.21c-1.96-0.08-3.3-2-4.76-3.25c-13.27-11.42-32.58-11.83-45.96-0.59
		c-3.29,2.77-6.48,4.18-10.83,4.15c-4.93-0.03-9.89-0.37-14.85,0.41c-3.21,0.51-4.18-1.12-2.77-4.1c0.6-1.28,1.5-2.43,2.39-3.55
		c1.14-1.45,1.48-3.26,0.91-4.71c-0.51-1.3-2.36-0.62-3.6-0.62c-50.82-0.03-101.64-0.03-152.46-0.03c-5.79,0-5.79,0-5.79-5.68
		c0-19.96,0.01-39.91-0.01-59.87c0-1.66,0.39-3.43-1.01-4.81c0.24-0.6,0.62-1.18,0.71-1.8c0.74-5.38,0.73-5.38,6.06-5.38
		c109.77,0,219.54,0.02,329.32-0.08c3.69,0,4.6,1.07,4.58,4.61c-0.14,23.09-0.13,46.19,0,69.28c0.02,3.36-0.79,4.45-4.35,4.42
		C531.56,285.85,513.4,286,495.24,286.04z M384.88,242.28c-51.49,0-102.98,0-154.47,0c-1.57,0-3.15,0.12-4.7-0.01
		c-2.03-0.17-2.76,0.98-3.21,2.64c-1.32,4.88,0.97,7.36,6.9,7.36c103.9,0,207.79,0,311.69,0c1.05,0,2.09,0.02,3.14-0.03
		c2.18-0.12,3.21-1.33,3.42-3.49c0.52-5.23-0.57-6.47-5.94-6.47C489.42,242.27,437.15,242.27,384.88,242.28z M384.65,231.31
		c52.26,0,104.52,0,156.78,0c0.91,0,1.83,0.01,2.74-0.01c2.22-0.05,3.24-1.27,3.47-3.42c0.53-4.76-0.56-6-5.46-6
		c-101.51,0-203.03,0-304.54,0c-3.53,0-7.06-0.03-10.58,0.02c-3.47,0.05-4.61,1.59-4.81,5.55c-0.17,3.41,1.81,3.89,4.45,3.86
		c1.44-0.02,2.87,0.01,4.31,0.01C282.22,231.31,333.43,231.31,384.65,231.31z M385.27,262.71c0,0,0-0.01,0-0.01
		c-52.39,0-104.77,0-157.16,0c-4.74,0-5.83,1.01-5.85,5.21c-0.01,4.07,0.76,4.73,5.68,4.73c54.21,0.01,108.43,0,162.64,0.02
		c1.85,0,3.57-0.21,5.27-1.11c18.5-9.85,37.11-9.95,55.7-0.29c2.09,1.08,4.12,1.41,6.37,1.4c19.33-0.03,38.67-0.02,58-0.03
		c8.88,0,17.77-0.02,26.65,0c3.21,0.01,5.22-0.94,5.08-4.73c-0.17-4.52-0.62-5.19-5.25-5.19
		C490.04,262.71,437.66,262.71,385.27,262.71z"/>
	<path fill="#3A3A3A" d="M142.24,344.04c-13.93,0.05-24.91-10.9-24.83-24.76c0.08-13.04,11.17-23.49,24.54-23.95
		c12.78-0.43,24.76,9.84,24.9,24.27C167,334.3,154.3,345.06,142.24,344.04z M128.09,319.45c-0.08,7.95,5.94,14.32,13.68,14.47
		c8.07,0.15,14.54-6.08,14.56-14.03c0.02-7.72-6.14-14.21-13.56-14.28C134.52,305.53,128.17,311.51,128.09,319.45z"/>
	<path fill="#3A3A3A" d="M399.44,319.58c-0.98-13.93,12.71-24.55,24.16-24.26c13.82,0.35,24.94,11.41,24.94,24.14
		c0,13.13-10.97,25.22-25.27,25.09C410.46,344.43,398.29,332.54,399.44,319.58z M437.92,319.54c-0.01-8.08-5.99-13.95-14.19-13.91
		c-7.88,0.04-14.39,6.27-14.03,14.12c0.38,8.33,4.57,14.55,15.25,13.94C431.77,333.3,438.09,328.85,437.92,319.54z"/>
	<path fill="#3A3A3A" d="M31.62,224.21c-0.4,8.05-2.93,17.05-13.29,21.67c-0.36,0.16-0.7,0.36-1.07,0.48
		c-3.09,0.96-6.6,3.18-9.34,1.81c-3.63-1.82-0.72-5.71-0.71-8.69c0.01-3.63,0.1-7.32,1.35-10.75c2.79-7.69,9-11.05,16.6-12.47
		c0.13-0.02,0.26-0.02,0.39-0.04C31.78,215.58,31.78,215.58,31.62,224.21z M29.36,223.29c0-1.11-0.1-1.78,0.02-2.4
		c0.64-3.52-1.35-3.49-3.75-2.75c-1.71,0.52-3.36,1.22-5.04,1.84c-5.64,2.1-9.55,5.7-10.32,11.98c-0.48,3.86-0.98,7.73-1.33,11.6
		c-0.07,0.79-1.08,2.5,0.74,2.33c1.53-0.14,4.17,0.34,4.26-2.14c0.27-7.26,4.51-10.71,11.04-11.91c2.7-0.49,3.8-1.87,4.03-4.35
		C29.14,225.94,29.27,224.38,29.36,223.29z"/>
	<path fill="#3A3A3A" d="M170.65,200.6c-1.83,0-3.66-0.08-5.48,0.02c-3.5,0.18-5.07-1.44-4.94-4.9c0.12-3.25,1.91-4.84,5.3-4.74
		c3.49,0.1,6.99,0.15,10.49,0.13c3.67-0.02,5.23,1.33,5.27,4.64c0.04,3.5-1.81,4.92-5.15,4.83c-1.83-0.05-3.65-0.01-5.48-0.01
		C170.65,200.58,170.65,200.59,170.65,200.6z"/>
	<path fill="#1E5578" d="M175.12,267.29c-0.06,0.33-0.12,0.65-0.19,0.98c-0.14-0.08-0.27-0.15-0.41-0.23
		C174.72,267.79,174.91,267.54,175.12,267.29C175.11,267.29,175.12,267.29,175.12,267.29z"/>
	<path fill="#3A3A3A" d="M384.88,242.28c52.27,0,104.55,0,156.82,0c5.37,0,6.46,1.24,5.94,6.47c-0.22,2.16-1.24,3.37-3.42,3.49
		c-1.04,0.06-2.09,0.03-3.14,0.03c-103.9,0-207.79,0-311.69,0c-5.93,0-8.23-2.48-6.9-7.36c0.45-1.66,1.19-2.81,3.21-2.64
		c1.56,0.13,3.13,0.01,4.7,0.01C281.9,242.28,333.39,242.28,384.88,242.28z"/>
	<path fill="#3A3A3A" d="M384.65,231.31c-51.21,0-102.43,0-153.64,0c-1.44,0-2.87-0.02-4.31-0.01c-2.63,0.03-4.62-0.45-4.45-3.86
		c0.2-3.95,1.34-5.5,4.81-5.55c3.53-0.05,7.05-0.02,10.58-0.02c101.51,0,203.03,0,304.54,0c4.9,0,5.99,1.24,5.46,6
		c-0.24,2.15-1.25,3.36-3.47,3.42c-0.91,0.02-1.83,0.01-2.74,0.01C489.16,231.31,436.9,231.31,384.65,231.31z"/>
	<path fill="#3A3A3A" d="M385.27,262.71c52.39,0,104.77,0,157.16,0.01c4.63,0,5.08,0.67,5.25,5.19c0.14,3.79-1.87,4.73-5.08,4.73
		c-8.88-0.02-17.77,0-26.65,0c-19.33,0.01-38.67,0-58,0.03c-2.25,0-4.29-0.32-6.37-1.4c-18.59-9.66-37.2-9.56-55.7,0.29
		c-1.7,0.91-3.42,1.11-5.27,1.11c-54.21-0.02-108.43-0.01-162.64-0.02c-4.92,0-5.69-0.66-5.68-4.73c0.01-4.2,1.11-5.21,5.85-5.21
		c52.39-0.01,104.77,0,157.16,0C385.27,262.7,385.27,262.71,385.27,262.71z"/>
</g>
<g>
	<path d="M552.99,271.74c7.82,5.09,15.18,1.22,22.43-0.6c15.04-3.76,13.5,0.19,13.6-16.48c0.16-26.83-0.1-53.67,0.25-80.5
		c0.04-3.17,2.02-7.96,4.43-9.03c3.2-1.43,8.49-2.02,9.8,4.41c0.25,1.24,3.66,2.58,5.63,2.6c24.42,0.19,48.85,0.26,73.27-0.02
		c2.09-0.02,4.7-2.3,6.13-4.23c3.51-4.74,10.42-4.52,13.94,0.44c1.25,1.77,3.75,3.73,5.7,3.75c24.42,0.26,48.85,0.27,73.27,0.05
		c2.11-0.02,4.93-1.58,6.18-3.32c4.13-5.71,9.97-5.88,14.14-0.45c1.45,1.89,4.39,3.71,6.67,3.73c23.82,0.27,47.64,0.31,71.46-0.01
		c2.44-0.03,5.44-2.27,7.15-4.33c3.63-4.38,9.81-4.32,13.57,0.22c1.6,1.93,4.31,4.14,6.54,4.16c24.12,0.3,48.24,0.24,72.37,0.08
		c2.08-0.01,5.61-1.07,5.96-2.34c1.78-6.37,6.73-6.35,10.67-4.58c2.13,0.96,3.53,5.77,3.56,8.86c0.3,31.64,0.25,63.29,0.29,94.94
		c0.01,5.88,0,11.76,0,18.67c-23.76,0-45.82,0-68.6,0c2.67,5.44,5.06,9.59,6.73,14.01c0.74,1.96,0.36,4.54-0.1,6.72
		c-0.62,2.9-2.65,5.68-2.63,8.5c0.16,24-18.26,43.05-41.9,42.97c-23.58-0.08-41.79-19.34-41.16-43.41c0.06-2.26,0.24-5.75-1.02-6.59
		c-5.34-3.54-2.6-7.32-1-11.03c1.51-3.49,3.42-6.79,5.57-10.99c-45.07,0-89.17,0-134.09,0c3.19,8.18,11.25,15.36,3.13,24.19
		c-0.38,0.41,0.3,1.72,0.35,2.62c1.28,24.8-16.49,44.71-40.3,45.19c-24.53,0.49-43-18.58-42.54-43.81c0.04-2.25,0.25-5.7-1.01-6.57
		c-5.28-3.66-2.33-7.39-0.75-11.07c1.49-3.46,3.37-6.75,5.1-10.15c-21.31-4.05-42.55,3.25-63.37-5.47
		c-7.86-3.3-19.52-3.47-28.53,3.22c-1.3,0.96-5.06,0.24-6.59-1.03 M683.86,293.51c-13.61,0.12-24.51,11.13-24.55,24.78
		c-0.04,13.32,11.42,25.02,24.42,24.92c13.36-0.1,24.34-11.28,24.43-24.85C708.25,304.66,697.22,293.38,683.86,293.51z
		 M893.75,293.54c-13.39-0.04-24.56,11.17-24.6,24.69c-0.05,13.53,11.16,24.9,24.46,24.82c13.83-0.09,24.41-10.78,24.36-24.6
		C917.92,304.5,907.3,293.58,893.75,293.54z M802.37,198.99c5.46,0,10.48,0,15.51,0c20.48,0,40.97-0.25,61.45,0.12
		c7.08,0.13,7.57-3.36,7.66-8.92c0.1-5.81-1.68-7.93-7.72-7.87c-25.26,0.27-50.53,0.12-76.9,0.12
		C802.37,188.4,802.37,193.07,802.37,198.99z M702.89,198.13c2.57,0.31,4.86,0.81,7.15,0.82c23.15,0.06,46.3-0.22,69.43,0.18
		c7.13,0.12,8.34-2.65,8.43-9.01c0.1-6.88-2.89-7.83-8.67-7.76c-22.54,0.24-45.09,0.09-67.63,0.13c-2.63,0-5.26,0.32-8.71,0.55
		C702.89,188.59,702.89,193.04,702.89,198.13z M688.06,183.19c-28.1,0-55.85,0-84.22,0c0,4.89,0,9.56,0,15.04
		c27.77,0,55.53,0,84.22,0C688.06,192.88,688.06,188.42,688.06,183.19z M802.36,225.07c13.33,0,26.46-0.01,39.58,0
		c12.94,0.01,25.87-0.04,38.81,0.12c4.73,0.06,7.08-2.15,5.99-6.53c-0.86-3.46-3-9.41-4.68-9.44c-26.39-0.6-52.8-0.42-79.71-0.42
		C802.36,214.5,802.36,219.2,802.36,225.07z M702.87,250.75c2.36,0.29,4.63,0.81,6.89,0.81c23.45,0.08,46.9-0.11,70.35,0.22
		c6.03,0.08,7.87-1.95,7.69-7.77c-0.16-5.36-0.24-9.08-7.47-8.98c-25.49,0.36-50.98,0.14-77.47,0.14
		C702.87,241.08,702.87,245.53,702.87,250.75z M603.72,251.02c28.09,0,55.87,0,84.14,0c0-5.21,0-9.88,0-15.25
		c-27.9,0-55.44,0-84.14,0C603.72,241.01,603.72,245.69,603.72,251.02z M687.94,209.63c-27.93,0-55.7,0-84.7,0
		c0,3.4-0.76,6.87,0.24,9.72c0.81,2.31,3.71,5.49,5.72,5.52c25.9,0.37,51.8,0.25,78.74,0.25
		C687.94,219.36,687.94,214.93,687.94,209.63z M802.33,251.6c11.54,0,22.6,0,33.65,0c14.77,0,29.54-0.22,44.29,0.11
		c6.2,0.14,6.94-3.05,6.6-7.89c-0.29-4.05,1.1-8.73-5.8-8.69c-25.86,0.16-51.73,0.06-78.74,0.06
		C802.33,241.16,802.33,245.83,802.33,251.6z M702.96,224.37c27.99,0,55.54,0,83.1,0c4.27-13.75,2.87-15.68-11.09-15.64
		c-20.48,0.06-40.97,0.02-61.45,0.03c-3.25,0-6.5,0-10.56,0C702.96,214.84,702.96,219.26,702.96,224.37z M901.64,250.96
		c27.6,0,55.18,0,83.57,0c0-4.74,0-9.64,0-15.19c-27.89,0-55.39,0-83.57,0C901.64,240.87,901.64,245.55,901.64,250.96z
		 M901.12,214.37c-0.1,2.99-0.03,5.98-0.03,9.83c28.21,0,55.97,0,84.67,0c0-3.91,0.37-7.53-0.17-11.01
		c-0.24-1.58-2.25-4.11-3.48-4.12c-26.69-0.24-53.38-0.18-80.16-0.18C901.55,211.46,901.17,212.91,901.12,214.37z M901.79,182.87
		c-0.28,2.93-0.49,5.52-0.79,8.1c-0.74,6.26,1.99,8.24,8.22,8.15c21.01-0.32,42.03-0.12,63.04-0.12c14.82,0,15.06-0.3,12.34-16.13
		C956.85,182.87,929.64,182.87,901.79,182.87z M629.06,278.51c0.59-0.05,1.96-4.91,1.1-5.88c-2.74-3.09-15.64-0.73-19,2.97
		c0.08,1.06,0.17,2.12,0.25,3.18C617.3,278.79,623.2,278.97,629.06,278.51z M957.54,271.94c-1.31,0.45-2.58,2.33-2.9,3.79
		c-0.17,0.78,1.55,2.51,2.72,2.92c1.91,0.67,4.23,1.22,6.1,0.74c3.93-1.01,7.69-2.72,11.51-4.14c-3.21-1.77-6.41-3.55-9.62-5.32
		c-0.27,0.46-0.55,0.92-0.82,1.39C962.19,271.46,959.69,271.2,957.54,271.94z"/>
</g>
<path fill="#3A3A3A" d="M659.92,319.46c-0.98-13.91,12.69-24.51,24.12-24.22c13.8,0.35,24.9,11.39,24.9,24.11
	c0,13.11-10.96,25.19-25.23,25.06C670.92,344.28,658.77,332.41,659.92,319.46z M698.34,319.43c-0.01-8.07-5.98-13.93-14.16-13.89
	c-7.87,0.04-14.37,6.26-14.01,14.1c0.38,8.31,4.56,14.52,15.23,13.91C692.2,333.16,698.51,328.72,698.34,319.43z"/>
<path fill="#3A3A3A" d="M870.14,319.46c-0.98-13.91,12.69-24.51,24.12-24.22c13.8,0.35,24.9,11.39,24.9,24.11
	c0,13.11-10.96,25.19-25.23,25.06C881.14,344.28,868.99,332.41,870.14,319.46z M908.56,319.43c-0.01-8.07-5.98-13.93-14.16-13.89
	c-7.87,0.04-14.37,6.26-14.01,14.1c0.38,8.31,4.56,14.52,15.23,13.91C902.42,333.16,908.73,328.72,908.56,319.43z"/>
</svg>
