<?xml version="1.0" encoding="utf-8"?>
<!-- Generator: Adobe Illustrator 23.1.0, SVG Export Plug-In . SVG Version: 6.00 Build 0)  -->
<svg version="1.1" id="Layer_1" xmlns="http://www.w3.org/2000/svg" xmlns:xlink="http://www.w3.org/1999/xlink" x="0px" y="0px"
	 viewBox="0 0 1000 500" enable-background="new 0 0 1000 500" xml:space="preserve">
<g>
	<path d="M261.93,435.72c-3.97,4.37-8,8.83-12.07,13.25c-22.93,24.94-60.45,25.37-82.95,0.22c-6.12-6.84-10.59-7.35-20.15-6.56
		c-29.63,2.47-59.6,1.28-89.41,0.49c-2.77-0.07-7.45-7.3-7.66-11.38c-1-20-0.83-40.07-0.99-60.11
		c-0.14-17.91-0.47-18.42-17.91-23.24c0-15.18-0.38-30.59,0.27-45.95c0.16-3.78,3.97-10.72,5.62-10.58
		c12.31,1.03,14.48-8.93,17.76-16.21c14.06-31.24,27.14-62.92,40.99-94.26c3.84-8.7,2.79-13.54-8.18-13.41
		c3.45-14.3,10.4-18.83,24.72-24.09c50.49-18.54,101.89-3.11,154.41-10.85c0-17.12-0.03-35.47,0.01-53.82
		c0.03-13.37,0.63-26.77,0.06-40.12c-0.45-10.46,2.93-15.04,14.01-14.35c12.81,0.79,25.71,0.26,38.57,0.26
		c210.42,0,420.85-0.01,631.27,0c21.19,0,21,0.03,20.99,20.99c-0.05,95.69-0.36,191.39,0.44,287.08
		c0.13,15.07-4.81,18.58-18.46,17.72c-15.73-1-31.58-0.23-50.79-0.23c2.79,22.98,5.55,44.37,7.84,65.8c0.47,4.39-0.56,9.04-1.6,13.4
		c-0.22,0.92-5.02,1.79-5.13,1.54c-1.74-3.94-3.86-7.99-4.3-12.18c-0.69-6.57-0.18-13.27-0.18-21.06c-2.71-0.39-6.13-1.56-9.4-1.24
		c-21.44,2.12-42.96,3.86-64.19,7.35c-5.61,0.92-39.22,23.57-44.41,30.99c-13.01,16.57-27.62,31.6-50.37,32.75
		c-23.19,1.18-40.2-10.03-50.2-24.63c-139.55,0-275.98,0.02-412.42-0.27C266.35,443.01,264.58,438.95,261.93,435.72z M134.86,386.91
		c-0.55-0.78-1.11-1.56-1.66-2.34c-5.04,2.66-9.94,7.26-15.13,7.6c-15.34,1.02-30.81,0.14-46.21,0.43
		c-8.71,0.16-11.69-3.84-11.62-12.16c0.23-26.71-0.4-53.45,0.53-80.13c0.15-4.39,5.85-11.41,10.08-12.37
		c28.4-6.45,57.14-11.4,85.7-17.2c24.34-4.95,48.58-10.4,72.43-15.53c0-30.15,0-58.7,0-88.8c-39.09,0-76.97-0.26-114.84,0.44
		c-3.48,0.06-8.18,5.64-10.04,9.69c-9.58,20.94-18.53,42.16-27.48,63.38c-6.93,16.43-17.92,32.62-19.39,49.58
		c-3.03,34.93-0.91,70.31-0.91,105.51c22.56,0,43.03,0.53,63.43-0.37C124.89,394.41,129.83,389.61,134.86,386.91z M264.98,350.77
		c-0.02,1.47-0.04,2.93-0.06,4.4c210.47,0,420.94,0,631.41,0c0-1.47,0-2.93,0-4.4C685.88,350.77,475.43,350.77,264.98,350.77z
		 M243.52,410.53c-0.18-21.77-15.19-36.5-36.71-36.05c-19.48,0.41-34.51,16.76-34.55,37.57c-0.03,21.49,14.21,36,35.16,35.83
		C231.75,447.68,243.73,435.28,243.52,410.53z M727.57,443.6c15.87-0.38,32.12-16.96,31.58-32.22
		c-0.51-14.47-19.15-33.42-32.26-32.81c-15.36,0.72-31.29,18.94-30.78,35.21C696.61,429.71,711.66,443.98,727.57,443.6z
		 M187.47,321.27c6.14-3.68,10.69-6.41,15.24-9.14c-4.93-2.22-9.8-6-14.81-6.18c-4.38-0.16-8.91,3.72-13.37,5.81
		C178.44,314.64,182.36,317.52,187.47,321.27z M130.26,353.31c-0.04-0.7-0.07-1.4-0.11-2.11c-17.43,0-34.86,0-52.29,0
		c0,0.7,0,1.4,0,2.11C95.32,353.31,112.79,353.31,130.26,353.31z"/>
	<path d="M47.32,417.87c-3.74,11.85,6.35,27.13-14.86,26.17c-20.1-0.91-20.14,0.13-20.08-20.68c0.01-3.07-0.05-6.14-0.03-9.21
		c0.06-14.41,17.51-25.64,28.79-16.88C46.29,401.28,45.88,412.46,47.32,417.87z"/>
</g>
<path fill="#3A3A3A" d="M690.3,410.23c-1.49-21.13,19.28-37.24,36.65-36.8c20.97,0.53,37.83,17.3,37.83,36.62
	c0,19.92-16.65,38.26-38.33,38.06C707.03,447.94,688.56,429.91,690.3,410.23z M748.67,410.19c-0.01-12.26-9.08-21.16-21.52-21.1
	c-11.95,0.06-21.83,9.51-21.29,21.41c0.57,12.63,6.93,22.07,23.14,21.14C739.35,431.05,748.94,424.3,748.67,410.19z"/>
<path fill="#3A3A3A" d="M170.75,410.23c-1.49-21.13,19.28-37.24,36.65-36.8c20.97,0.53,37.83,17.3,37.83,36.62
	c0,19.92-16.65,38.26-38.33,38.06C187.48,447.94,169.01,429.91,170.75,410.23z M229.12,410.19c-0.01-12.26-9.08-21.16-21.52-21.1
	c-11.95,0.06-21.83,9.51-21.29,21.41c0.57,12.63,6.93,22.07,23.14,21.14C219.8,431.05,229.39,424.3,229.12,410.19z"/>
</svg>
