<?xml version="1.0" encoding="utf-8"?>
<!-- Generator: Adobe Illustrator 23.1.0, SVG Export Plug-In . SVG Version: 6.00 Build 0)  -->
<svg version="1.1" id="Layer_1" xmlns="http://www.w3.org/2000/svg" xmlns:xlink="http://www.w3.org/1999/xlink" x="0px" y="0px"
	 viewBox="0 0 1000 500" enable-background="new 0 0 1000 500" xml:space="preserve">
<g>
	<path d="M627.42,346.11c-124.25,0.01-248.51-0.17-372.76,0.31c-12,0.05-12.95-5.03-12.9-14.48c0.3-64.27,0.4-128.55,0.19-192.83
		c-0.08-26.17-0.61-52.37-1.92-78.5c-0.59-11.75,2.82-15.67,14.96-15.53c53.8,0.59,107.6,0.25,161.4,0.24
		c193.31,0,386.62,0.11,579.92-0.29c12.31-0.03-16.14,2.57-16.24,15.58c-0.68,90.46-0.67,180.93-0.15,271.39
		c0.07,12.21,29.31,14.68,17.1,14.61c-112.3-0.67-224.61-0.47-336.92-0.52C649.21,346.09,638.31,346.1,627.42,346.11z"/>
	<path d="M932.22,388.33c-25.22,2.98-50.1-3.85-73.9-0.33c-3.55,0.53-5.87,14.91-8.54,18.41c-5.16,6.77-9.37,14.31-14.94,20.69
		c-1.78,2.04-6.71,1.1-10.04,2.07c-3.07,0.89-6.75,1.74-8.75,3.92c-27.06,29.4-57.41,29.84-84.43,0.96
		c-7.47-7.99-21.53-8.72-28.85-1.5c-32.26,31.77-58.15,31.07-87.72-2.31c-0.92-1.03-2.3-1.65-2.24-1.61
		c-6.59,1.65-12.07,4.21-17.54,4.22c-115.23,0.16-230.45,0.08-345.68-0.18c-5.21-0.01-10.42-2.25-16.07-3.56
		c-25.36,32.8-64.58,37.18-93.29,1.34c-9.1,0.88-17.42,2.31-25.76,2.38c-32.35,0.27-64.71-0.16-97.06,0.29
		c-9.13,0.12-13.15-2.66-12.72-12.06c0.46-9.86,0.1-19.77,0.1-33.34c11.73,2.14,25.22,0.78,29.35,6.36
		c4.71,6.37,1.09,18.91,4.47,28.75c0-22.39,0.68-44.82-0.58-67.15c-0.25-4.41-8.01-8.4-13.66-13.91c0-16.34,0-35.59,0-58.42
		c15.46,0.42,12.71,8.34,16.18,0.34c9.24-21.28,18.7-42.46,27.97-63.73c3.97-9.11,6.81-18.86,11.8-27.35
		c5.26-8.95,3.1-13.53-6.13-15.49c2.83-14.13,8.58-22.96,24.15-20.79c2.83,0.39,7.21-2.15,9.13-4.67
		c25.87-33.98,61.11-52.03,102.3-58.06c29.26-4.29,29.47-2.88,29.41,26.97c-0.06,31.31-0.05,31.77-30.96,32.35
		c-30.81,0.58-61.63,0.13-92.44,3.17c36.08,0,72.16,0.36,108.23-0.22c10.89-0.18,15.68,2.84,15.61,14.29
		c-0.33,55.71-0.16,111.42-0.31,167.12c-0.01,4.2-1.12,8.4-1.74,12.74c126.6,0,253.47,0.01,380.34-0.01
		c52.92-0.01,105.84-0.12,158.76-0.11c48.21,0.01,96.42,0.65,144.62-0.15c13.63-0.23,16.7,4.34,16.75,16.97
		c0.06,13.8,3.39,27.56,4.73,41.39c0.39,4-0.92,8.26-2.08,12.21c-0.23,0.79-4.73,1.3-4.85,1c-1.46-3.71-3.09-7.54-3.44-11.46
		C931.82,403.75,932.22,397.55,932.22,388.33z M117.41,382.01c-0.6-0.76-1.21-1.52-1.81-2.27c-4.6,1.91-9.13,5.21-13.82,5.47
		c-13.29,0.72-26.67-0.43-39.95,0.33c-10.87,0.62-14.16-3.9-13.93-14.07c0.52-22.36,1-44.76,0.21-67.1
		c-0.43-12.16,5.34-15.32,15.75-17.07c20.06-3.36,39.93-7.89,59.89-11.92c26.4-5.33,52.8-10.64,81.72-16.47
		c0,17.8-1.04,33.93,0.3,49.85c1.28,15.09-5.05,19.58-18.71,18.34c-5.51-0.5-11.1-0.08-16.66-0.08c0.06,1.22,0.12,2.43,0.18,3.65
		c6.59,0,13.24-0.63,19.74,0.13c12.4,1.45,17.34-3.67,17.17-15.95c-0.58-41.86-1.01-83.73-0.9-125.59
		c0.03-11.05-4.61-13.51-14.7-13.32c-28.55,0.56-57.14,0.84-85.67-0.1c-10.1-0.33-14.54,3.57-18.01,11.9
		c-8.95,21.42-17.81,42.91-27.67,63.91c-11.03,23.49-18.08,47.24-15.9,73.79c1.69,20.59,0.34,41.42,0.34,62.47
		c21.38,0,40.41,0.36,59.4-0.27C108.78,387.49,113.07,383.97,117.41,382.01z M153.09,402.88c-0.14,20.61,12.51,33.61,33.08,33.99
		c18.95,0.35,35.29-15.16,35.33-33.55c0.05-17.53-17.14-34.04-35.53-34.15C167.47,369.07,153.22,383.68,153.09,402.88z
		 M744.49,402.43c-0.75,16.16,11.11,29.28,27.31,30.21c14.25,0.82,30.84-14.71,31.66-29.63c0.72-13.09-15.05-28.66-29.55-29.16
		C759.31,373.34,745.2,387.05,744.49,402.43z M659.68,432.59c15.5,0.32,28.51-12.55,29.05-28.74c0.49-14.86-14.72-30.73-29.55-30.83
		c-12.78-0.09-29,16.8-29.07,30.25C630.05,417.33,645.13,432.29,659.68,432.59z M171.96,349.59c20.62-2.16,39.8,0.64,56.47,18.17
		C224.27,351.49,193.62,342.56,171.96,349.59z M167.93,319.8c5.26-4.01,9.08-6.93,12.9-9.85c-4.32-1.72-8.7-4.91-12.95-4.76
		c-4.14,0.15-8.17,3.7-12.24,5.76C159.22,313.53,162.81,316.11,167.93,319.8z M112.22,349.25c-0.09-0.65-0.18-1.29-0.27-1.94
		c-15.17,0-30.34,0-45.51,0c0.01,0.65,0.02,1.29,0.03,1.94C81.72,349.25,96.97,349.25,112.22,349.25z M829.14,389.25
		c-0.68,0.02-1.36,0.03-2.04,0.05c0,9.39,0,18.79,0,28.18c0.68-0.01,1.36-0.01,2.04-0.02C829.14,408.06,829.14,398.65,829.14,389.25
		z"/>
</g>
<path fill="#3A3A3A" d="M741.22,405.96c-1.31-18.62,16.99-32.81,32.28-32.42c18.47,0.47,33.32,15.24,33.32,32.26
	c0,17.55-14.66,33.71-33.76,33.53C755.95,439.18,739.68,423.29,741.22,405.96z M792.64,405.92c-0.01-10.8-8-18.64-18.96-18.59
	c-10.53,0.05-19.23,8.38-18.75,18.86c0.5,11.12,6.11,19.44,20.38,18.62C784.42,424.29,792.87,418.35,792.64,405.92z"/>
<path fill="#3A3A3A" d="M627.34,405.95c-1.33-18.91,17.26-33.33,32.8-32.93c18.77,0.48,33.86,15.48,33.85,32.78
	c0,17.83-14.9,34.25-34.3,34.07C642.3,439.7,625.78,423.56,627.34,405.95z M679.58,405.91c-0.01-10.97-8.13-18.94-19.26-18.89
	c-10.7,0.05-19.53,8.51-19.05,19.16c0.51,11.3,6.2,19.75,20.71,18.92C671.23,424.58,679.82,418.54,679.58,405.91z"/>
<path fill="#3A3A3A" d="M150.28,405.55c-1.48-21.04,19.2-37.08,36.49-36.64c20.88,0.53,37.66,17.23,37.66,36.46
	c0,19.83-16.57,38.1-38.16,37.9C166.93,443.1,148.55,425.14,150.28,405.55z M208.39,405.51c-0.01-12.21-9.04-21.07-21.42-21.01
	c-11.9,0.06-21.73,9.47-21.2,21.32c0.57,12.57,6.9,21.97,23.04,21.05C199.11,426.27,208.66,419.56,208.39,405.51z"/>
</svg>
