<?xml version="1.0" encoding="utf-8"?>
<!-- Generator: Adobe Illustrator 23.1.0, SVG Export Plug-In . SVG Version: 6.00 Build 0)  -->
<svg version="1.1" id="Layer_1" xmlns="http://www.w3.org/2000/svg" xmlns:xlink="http://www.w3.org/1999/xlink" x="0px" y="0px"
	 viewBox="0 0 400 400" enable-background="new 0 0 400 400" xml:space="preserve">
<g>
	<path fill="#030303" d="M396,192.24c0,3.49,0,6.98,0,10.47c-5.25,11.04-12.96,20.34-21.39,28.97
		c-11.73,12.01-15.32,26.12-12.87,42.37c0.91,6.01,1.26,12.15,1.32,18.24c0.18,17.52-5.63,25.43-22.49,30.52
		c-6.92,2.09-13.95,4.06-21.07,5.2c-14.65,2.34-24.77,10.34-31.96,22.99c-4.72,8.3-9.27,16.77-15.67,24
		c-7.21,8.15-15.86,11.02-26.56,8.14c-7.32-1.97-14.34-4.73-21.01-8.13c-16.5-8.41-32.67-8.44-49.19-0.04
		c-6.16,3.13-12.83,5.3-19.38,7.57c-12.24,4.25-22.39,0.83-29.83-9.53c-5.23-7.28-9.91-14.98-14.42-22.74
		c-6.98-12.01-16.84-19.47-30.68-22.1c-9.08-1.73-18.1-4.14-26.84-7.15c-11.67-4.01-17.82-12.63-17.59-25.17
		c0.14-7.54,0.16-15.17,1.32-22.59c2.46-15.75-1.31-29.21-12.35-40.82c-8.52-8.96-16.43-18.45-21.86-29.73c0-4.07,0-8.14,0-12.21
		c5.65-11.51,13.9-21.12,22.59-30.34c10.32-10.96,13.55-23.82,11.83-38.49c-0.94-8.05-1.55-16.21-1.45-24.31
		c0.16-13.68,6.1-21.42,19.2-25.75c5.76-1.9,11.64-3.79,17.61-4.61c18.63-2.56,32.31-11.61,40.72-28.68
		c2.81-5.69,6.4-11.04,10.09-16.23c8.83-12.41,18.91-15.82,33.3-10.94c8.19,2.78,16.12,6.38,24.1,9.77c12.12,5.16,24.15,5.2,36.28,0
		c7.97-3.41,15.93-6.93,24.13-9.7c15.02-5.05,24.76-1.68,33.76,11.48c4.57,6.69,8.59,13.75,12.74,20.72
		c6.88,11.57,16.43,19.09,30,21.63c8.79,1.64,17.5,4.01,25.99,6.83c12.65,4.2,18.38,12.04,18.63,25.28
		c0.14,7.22-0.37,14.53-1.35,21.69c-2.21,16.16,0.96,30.35,12.65,42.46C383.09,170.44,391.49,180.03,396,192.24z M54.27,195.08
		c1.01,84.75,65.74,148.79,150.33,146.72c79.12-1.94,141.4-68.51,140.56-147.09c-0.85-80.03-67.62-144.47-148.83-143.52
		C119.24,52.1,53.36,118.81,54.27,195.08z"/>
	<path fill="#030303" d="M199.54,70.51c-68.03,0.22-126.17,56.53-126.05,122.1c0.13,74.3,55.12,130.42,127.58,130.18
		c67.93-0.22,125.05-57.42,124.93-125.11C325.87,127.2,269.29,70.29,199.54,70.51z M168.56,131.5
		c17.88,0.11,30.59,13.05,30.39,30.93c-0.2,16.92-13.5,29.47-31.11,29.35c-17.58-0.12-30.97-13.71-30.59-31.03
		C137.62,143.83,150.94,131.39,168.56,131.5z M231.91,172.26l-61.33,69.06c-7.53,8.9-15.67,10.48-27.62,8.08
		c26.82-29.78,52.63-58.45,78.44-87.13c2.92-3.24,6.27-6.2,8.63-9.8c6.44-9.83,15.59-10.5,27.24-8.57 M231.02,261.79
		c-16.91-0.1-29.33-12.81-29.25-29.92c0.08-17.18,12.98-29.2,31.04-28.92c16.88,0.26,29.53,13.09,29.52,29.91
		C262.31,249.59,249,261.9,231.02,261.79z"/>
	<path fill="#F7F7F7" d="M168.13,177.09c9.81-0.02,15.6-5.8,15.58-15.55c-0.02-9.26-6.5-15.94-15.59-16.05
		c-9.02-0.11-16.2,6.69-16.35,15.47C151.63,170.39,158.44,177.11,168.13,177.09z"/>
	<path fill="#030303" d="M168.13,177.09c-9.69,0.02-16.5-6.71-16.35-16.14c0.14-8.78,7.33-15.58,16.35-15.47
		c9.08,0.11,15.56,6.79,15.59,16.05C183.73,171.29,177.94,177.07,168.13,177.09z"/>
	<path fill="#030303" d="M231.65,216.44c9.44-0.09,15.98,6.16,16.15,15.42c0.17,9.23-6.37,15.99-15.55,16.08
		c-9.21,0.09-16-6.45-16.15-15.57C215.94,222.91,222.18,216.52,231.65,216.44z"/>
</g>
</svg>
