<?xml version="1.0" encoding="utf-8"?>
<!-- Generator: Adobe Illustrator 23.1.0, SVG Export Plug-In . SVG Version: 6.00 Build 0)  -->
<svg version="1.1" id="Layer_1" xmlns="http://www.w3.org/2000/svg" xmlns:xlink="http://www.w3.org/1999/xlink" x="0px" y="0px"
	 viewBox="0 0 490.1 398.5" enable-background="new 0 0 490.1 398.5" xml:space="preserve">
<path fill="#848484" d="M445,200.2c0,11.59-10.37,21.22-22.85,21.22h-33.71v128.22c0,7.1-5.47,12.16-13.06,12.16h-76.15v-93.45
	c0-13.63-12-24.24-26.12-24.24h-56.56c-14.69,0-26.12,11.1-26.12,24.24v93.94h-76.07c-7.59,0-13.06-5.06-13.06-12.16V221.91H67.52
	c-9.22,0-17.38-5.06-20.65-13.63s-1.06-17.14,5.96-23.26l177.93-143.4c8.73-7.1,20.65-7.1,29.38,0l77.78,63.09V90.09
	c0-7.1,5.96-12.65,13.63-12.65h27.75c7.59,0,13.63,5.55,13.63,12.65v58.6l43.5,35.34C441.16,187.54,445,193.67,445,200.2z"/>
</svg>
