<?xml version="1.0" encoding="utf-8"?>
<!-- Generator: Adobe Illustrator 23.1.0, SVG Export Plug-In . SVG Version: 6.00 Build 0)  -->
<svg version="1.1" id="Layer_1" xmlns="http://www.w3.org/2000/svg" xmlns:xlink="http://www.w3.org/1999/xlink" x="0px" y="0px"
	 viewBox="0 0 400 400" enable-background="new 0 0 400 400" xml:space="preserve">
<g>
	<path fill="#0C0C0C" d="M41.79,184.92c0-55.79,0-111.58,0-167.37c0-10.09,3.36-13.44,13.4-13.44c79.27,0,158.53,0,237.8,0
		c10.43,0,13.2,2.81,13.2,13.37c0,59.45,0,118.91,0,178.36c0,7,0.01,7.01,6.83,7.01c8.49,0.01,16.99-0.06,25.48,0.02
		c7.53,0.07,10.93,3.54,10.94,11.07c0.02,50.79,0.03,101.59-0.01,152.38c-0.01,17.42-13.8,31.46-31.27,31.61
		c-22.31,0.18-44.63,0.05-66.94,0.05c-54.12,0-108.24,0.02-162.36-0.01c-21.04-0.01-37.19-11.03-44.47-30.51
		c-2.11-5.64-2.63-11.62-2.63-17.67C41.81,294.83,41.79,239.88,41.79,184.92z M287.61,197.62c0-56.12-0.06-112.24,0.1-168.37
		c0.01-4.84-0.99-6.6-6.28-6.58c-71.77,0.18-143.54,0.17-215.32,0.01c-5.07-0.01-6.45,1.42-6.44,6.47
		c0.14,106.91,0.1,213.83,0.11,320.75c0,18.4,11.04,29.38,29.54,29.4c25.48,0.03,50.96,0.01,76.43,0.01
		c39.63,0,79.27-0.04,118.9,0.07c3.93,0.01,5.85-0.85,4.33-5.05c-1.63-4.5-1.37-9.19-1.37-13.84
		C287.61,306.2,287.61,251.91,287.61,197.62z M305.63,295.37c0,23.46-0.05,46.91,0.03,70.37c0.03,7.65,5.59,13.41,12.54,13.4
		c6.84-0.01,12.77-5.86,12.79-13.27c0.1-46.75,0.03-93.49,0.13-140.24c0.01-3.49-1.54-4.26-4.51-4.21
		c-5.32,0.08-10.65,0.2-15.97-0.04c-3.86-0.17-5.15,1.1-5.11,5.12C305.72,249.46,305.62,272.42,305.63,295.37z"/>
	<path fill="#0C0C0C" d="M174.22,150.45c-5.06,0.04-8.6-2.86-8.98-7.97c-0.24-3.19-1.41-4.94-4.31-6.49
		c-5.46-2.91-9.11-7.71-10.94-13.63c-1.31-4.24,0.68-7.77,4.07-9.86c3.6-2.22,7.7-2.17,11.03,1.05c1.29,1.24,2.13,2.93,3.22,4.39
		c2.11,2.84,5.03,3.05,8.07,2.14c2.88-0.86,4.43-3.26,4.47-6c0.04-3.01-1.79-5.12-4.83-6.24c-3.74-1.38-7.8-1.21-11.48-3.16
		c-17.91-9.47-19.21-33.64-2.13-44.44c2.3-1.45,3.13-2.92,3.42-5.46c0.66-5.75,4.32-8.97,9.51-8.83c5.04,0.14,8.11,3.16,8.6,8.97
		c0.21,2.46,1.14,4.02,3.28,5.09c5.13,2.56,8.53,6.7,10.82,11.88c1.92,4.35,0.6,9.55-3.09,11.75c-4.09,2.44-10.22,1.21-12.99-2.64
		c-0.87-1.21-1.48-2.64-2.51-3.68c-2.24-2.26-4.8-3.52-8.04-1.81c-3.19,1.69-4.66,4.26-3.92,7.79c0.69,3.35,3.04,5.09,6.37,5.23
		c7.58,0.32,14.28,2.57,19.67,8.2c11.17,11.66,8.07,32.01-6.17,39.7c-2.53,1.37-3.88,2.8-4.02,6.02
		C183.14,147.35,179.15,150.41,174.22,150.45z"/>
	<path fill="#0C0C0C" d="M136.99,311.57c-12.82,0-25.63,0.06-38.45-0.02c-6.35-0.04-10.64-3.42-11.13-8.46
		c-0.6-6.21,3.64-10.35,11.07-10.41c13.48-0.11,26.96-0.03,40.44-0.03c12.48,0,24.97-0.06,37.45,0.05c4.15,0.03,7.77,1.23,9.79,5.49
		c1.64,3.45,1.08,6.58-0.99,9.39c-2.36,3.19-5.92,4.01-9.74,4C162.62,311.56,149.81,311.57,136.99,311.57z"/>
	<path fill="#0C0C0C" d="M210.46,204.78c-12.82,0.01-25.65,0.09-38.47-0.03c-7.33-0.06-10.93-3.4-10.71-9.48
		c0.2-5.55,4.35-9.2,10.82-9.22c20.32-0.06,40.63-0.02,60.95-0.02c5.5,0,10.99-0.04,16.49,0.02c6.62,0.07,11.14,3.99,11.14,9.54
		c0,5.59-3.96,9.11-10.75,9.16C236.77,204.85,223.62,204.78,210.46,204.78z"/>
	<path fill="#0C0C0C" d="M210.88,346.49c-13.14,0-26.28,0.05-39.42-0.03c-6.68-0.04-10.16-3.18-10.18-8.88
		c-0.03-5.76,3.85-9.41,10.44-9.42c26.11-0.06,52.23-0.08,78.34,0.01c8.25,0.03,12.66,6.33,9.6,13.25
		c-1.82,4.14-5.24,5.11-9.36,5.09C237.16,346.45,224.02,346.49,210.88,346.49z"/>
	<path fill="#0C0C0C" d="M137.39,221.83c12.99,0,25.97-0.04,38.96,0.01c6.58,0.03,10.75,3.64,10.79,9.15
		c0.03,5.51-4.18,9.21-10.73,9.21c-26.3,0.02-52.61,0.02-78.92-0.02c-6.31-0.01-10.11-3.53-10.12-9.12
		c-0.01-5.59,3.77-9.17,10.07-9.21C110.76,221.78,124.08,221.83,137.39,221.83z"/>
	<path fill="#0C0C0C" d="M211.49,257.67c12.98,0,25.95-0.03,38.93,0.01c6.39,0.02,10.22,3.47,10.17,8.99
		c-0.05,5.45-4.06,9.28-10.14,9.3c-26.29,0.06-52.57,0.07-78.86,0.01c-6.61-0.02-10.38-3.67-10.3-9.53
		c0.07-5.62,3.63-8.73,10.28-8.75C184.87,257.64,198.18,257.67,211.49,257.67z"/>
	<path fill="#0C0C0C" d="M233.45,292.66c5.48,0,10.96-0.08,16.44,0.02c6.58,0.12,10.67,3.67,10.82,9.19c0.15,5.45-4,9.55-10.4,9.65
		c-11.12,0.18-22.26,0.18-33.38,0c-6.55-0.11-10.29-3.93-10.18-9.72c0.11-5.49,3.84-8.92,10.25-9.1
		C222.48,292.54,227.97,292.66,233.45,292.66z"/>
	<path fill="#0C0C0C" d="M114.37,204.79c-5.66-0.01-11.32,0.14-16.97-0.04c-6.41-0.21-10.14-3.81-10.04-9.27
		c0.1-5.29,4.28-9.33,10.19-9.39c11.31-0.13,22.63-0.14,33.94,0.01c5.76,0.07,10.13,4.43,10.1,9.55c-0.04,5.26-3.67,8.66-9.75,9.13
		c-0.33,0.03-0.66,0.03-1,0.03C125.34,204.79,119.86,204.79,114.37,204.79z"/>
	<path fill="#0C0C0C" d="M114.63,346.47c-5.99,0-11.97,0.1-17.95-0.03c-5.63-0.12-9.27-3.68-9.32-8.81
		c-0.05-5.11,3.53-9.26,8.97-9.37c11.96-0.25,23.94-0.24,35.91-0.03c5.63,0.1,9.53,4.45,9.34,9.58c-0.19,5.11-3.8,8.51-9.49,8.63
		C126.27,346.57,120.45,346.47,114.63,346.47z"/>
	<path fill="#0C0C0C" d="M114.32,276c-5.49,0-10.98,0.07-16.47-0.02c-6.46-0.1-10.55-3.85-10.48-9.44
		c0.07-5.61,3.72-8.83,10.25-8.86c11.31-0.05,22.63-0.06,33.94,0c6.34,0.03,10.05,3.49,10.03,9.13c-0.02,5.05-4.1,8.87-9.8,9.17
		c-0.33,0.02-0.67,0.01-1,0.01C125.3,276,119.81,276,114.32,276z"/>
	<path fill="#0C0C0C" d="M233.23,240.22c-5.66,0-11.32,0.07-16.98-0.02c-6.01-0.1-9.49-3.56-9.47-9.22
		c0.02-5.62,3.52-9.09,9.51-9.13c11.65-0.07,23.3-0.08,34.96,0.01c5.41,0.04,9.2,3.8,9.35,8.91c0.15,5.34-3.68,9.3-9.39,9.41
		C245.22,240.3,239.22,240.21,233.23,240.22z"/>
</g>
</svg>
